<svg xmlns="http://www.w3.org/2000/svg" enable-background="new 0 0 128 128" viewBox="0 0 128 128"><radialGradient id="d" cx="64.167" cy="122.33" r="20.667" gradientUnits="userSpaceOnUse"><stop offset="0" stop-color="#FFA000"/><stop offset=".743" stop-color="#FF8F00"/><stop offset="1" stop-color="#FF8F00"/></radialGradient><circle cx="64" cy="112" r="12" fill="url(#d)"/><radialGradient id="c" cx="63.75" cy="-1.5" r="17.653" gradientUnits="userSpaceOnUse"><stop offset="0" stop-color="#FFD740"/><stop offset=".203" stop-color="#FFD43C"/><stop offset=".416" stop-color="#FFCB2F"/><stop offset=".633" stop-color="#FFBD1A"/><stop offset=".834" stop-color="#FFAB00"/><stop offset="1" stop-color="#FFAB00"/></radialGradient><circle cx="64" cy="12" r="8" fill="url(#c)"/><g opacity=".2"><path fill="#424242" d="m64 103c4.96 0 9 4.04 9 9s-4.04 9-9 9-9-4.04-9-9 4.04-9 9-9m0-3c-6.63 0-12 5.37-12 12s5.37 12 12 12 12-5.37 12-12-5.37-12-12-12z"/></g><g opacity=".2"><path fill="#424242" d="m64 7c2.76 0 5 2.24 5 5s-2.24 5-5 5-5-2.24-5-5 2.24-5 5-5m0-3c-4.42 0-8 3.58-8 8s3.58 8 8 8 8-3.58 8-8-3.58-8-8-8z"/></g><radialGradient id="b" cx="63.833" cy="11.167" r="103.48" gradientUnits="userSpaceOnUse"><stop offset="0" stop-color="#FFD740"/><stop offset=".203" stop-color="#FFD43C"/><stop offset=".416" stop-color="#FFCB2F"/><stop offset=".633" stop-color="#FFBD1A"/><stop offset=".834" stop-color="#FFAB00"/><stop offset="1" stop-color="#FFAB00"/></radialGradient><path fill="url(#b)" d="m104 44c0-35.62-40-32-40-32s-40-3.62-40 32-12 52-12 52h104s-12-16.38-12-52z"/><path fill="#FFD740" d="m118 108h-108c-3.3 0-6-2.7-6-6s2.7-6 6-6h108c3.3 0 6 2.7 6 6s-2.7 6-6 6z"/><g opacity=".2"><path fill="#424242" d="m67.03 14.9c10.22 0 33.97 2.83 33.97 29.1 0 36.18 12.07 53.07 12.58 53.77l0.9 1.23h3.52c1.65 0 3 1.35 3 3s-1.35 3-3 3h-108c-1.65 0-3-1.35-3-3s1.35-3 3-3h3.52l0.9-1.23c0.51-0.7 12.58-17.59 12.58-53.77 0-11.5 4.51-19.75 13.4-24.51 7.46-4 16.09-4.59 20.56-4.59 1.71 0 2.76 0.09 2.76 0.09l0.28 0.02 0.27-0.02c0.01 0 1.05-0.09 2.76-0.09m0-3c-1.89 0-3.03 0.1-3.03 0.1s-1.14-0.1-3.03-0.1c-9.33 0-36.97 2.49-36.97 32.1 0 35.62-12 52-12 52h-2c-3.3 0-6 2.7-6 6s2.7 6 6 6h108c3.3 0 6-2.7 6-6s-2.7-6-6-6h-2s-12-16.38-12-52c0-29.6-27.64-32.1-36.97-32.1z"/></g><radialGradient id="a" cx="64.5" cy="101.83" r="77.668" gradientUnits="userSpaceOnUse"><stop offset="0" stop-color="#FFD740"/><stop offset=".243" stop-color="#FFD43C"/><stop offset=".499" stop-color="#FFCB2F"/><stop offset=".76" stop-color="#FFBD1A"/><stop offset="1" stop-color="#FFAB00"/></radialGradient><path fill="url(#a)" d="m118 108h-108c-3.3 0-6-2.7-6-6s2.7-6 6-6h108c3.3 0 6 2.7 6 6s-2.7 6-6 6z"/><g opacity=".2"><path fill="#424242" d="m118 99c1.65 0 3 1.35 3 3s-1.35 3-3 3h-108c-1.65 0-3-1.35-3-3s1.35-3 3-3h108m0-3h-108c-3.3 0-6 2.7-6 6s2.7 6 6 6h108c3.3 0 6-2.7 6-6s-2.7-6-6-6z"/></g></svg>