<svg xmlns="http://www.w3.org/2000/svg" xmlns:xlink="http://www.w3.org/1999/xlink" enable-background="new 0 0 128 128" viewBox="0 0 128 128"><linearGradient id="d" x1="64" x2="64" y1="36.833" y2="104.33" gradientUnits="userSpaceOnUse"><stop offset="0" stop-color="#FFC107"/><stop offset="1" stop-color="#FFD54F"/></linearGradient><path fill="url(#d)" d="m120 104h-112c-2.21 0-4-1.79-4-4v-72c0-2.21 1.79-4 4-4h112c2.21 0 4 1.79 4 4v72c0 2.21-1.79 4-4 4z"/><linearGradient id="c" x1="64" x2="64" y1="8.456" y2="72.154" gradientUnits="userSpaceOnUse"><stop offset="0" stop-color="#FFE082"/><stop offset=".993" stop-color="#FFCA28"/></linearGradient><path fill="url(#c)" d="M124,30.16V28c0-2.21-1.79-4-4-4H8c-2.21,0-4,1.79-4,4v2.02l59.91,46.13L124,30.16z"/><defs><path id="b" d="m120 104h-112c-2.21 0-4-1.79-4-4v-72c0-2.21 1.79-4 4-4h112c2.21 0 4 1.79 4 4v72c0 2.21-1.79 4-4 4z"/></defs><clipPath id="a"><use xlink:href="#b"/></clipPath><g fill="none" stroke="#FFB300" stroke-miterlimit="10" stroke-width="3" clip-path="url(#a)"><line x1="43.01" x2="-.19" y1="60.76" y2="107.93"/><line x1="84.88" x2="128" y1="60.66" y2="108.12"/></g><polyline fill="none" stroke="#FFB300" stroke-miterlimit="10" stroke-width="3" points=".08 27.78 63.91 76.14 127.92 27.94" clip-path="url(#a)"/><g opacity=".2"><path fill="#444" d="m120 27c0.55 0 1 0.45 1 1v72c0 0.55-0.45 1-1 1h-112c-0.55 0-1-0.45-1-1v-72c0-0.55 0.45-1 1-1h112m0-3h-112c-2.21 0-4 1.79-4 4v72c0 2.21 1.79 4 4 4h112c2.21 0 4-1.79 4-4v-72c0-2.21-1.79-4-4-4z"/></g></svg>