<svg xmlns="http://www.w3.org/2000/svg" xmlns:xlink="http://www.w3.org/1999/xlink" enable-background="new 0 0 128 128" viewBox="0 0 128 128"><path fill="#7CB342" d="m94.98 112.21c32.69-18.28 37.44-58.46 19.95-87.39l-111.51 67.43c19.84 31.55 51.72 42.24 91.56 19.96z"/><defs><path id="g" d="m94.98 112.21c32.69-18.28 37.44-58.46 19.95-87.39l-111.51 67.43c19.84 31.55 51.72 42.24 91.56 19.96z"/></defs><clipPath><use xlink:href="#g"/></clipPath><path fill="#FFF9C4" d="M94.41,101.49C123.67,79.18,120,57,111.53,32l-2.27-3.76L9.09,88.82l2.27,3.76 C25.82,116.49,64.67,124.17,94.41,101.49z"/><linearGradient id="f" x1="63.818" x2="63.818" y1="56.107" y2="106.21" gradientTransform="matrix(-.8557 .5175 .5175 .8557 84.72 -22.547)" gradientUnits="userSpaceOnUse"><stop offset="0" stop-color="#FF1744"/><stop offset=".162" stop-color="#FF2249"/><stop offset=".449" stop-color="#FF4157"/><stop offset=".774" stop-color="#FF6A6A"/></linearGradient><path fill="url(#f)" d="m82.69 103.74 5.6-3.39c24.03-14.53 31.73-45.79 17.2-69.82l-12.25 7.41-7.32 4.43-10.73 6.49-21.71 13.12-14.37 8.69-9.45 5.71-16.8 10.16c14.54 24.03 45.8 31.73 69.83 17.2z"/><linearGradient id="e" x1="55.54" x2="55.54" y1="60.428" y2="70.411" gradientTransform="matrix(-1 0 0 1 128.35 0)" gradientUnits="userSpaceOnUse"><stop offset="0" stop-color="#1A1A1A"/><stop offset=".277" stop-color="#292929"/><stop offset=".811" stop-color="#515151"/><stop offset="1" stop-color="#616161"/></linearGradient><path fill="url(#e)" d="m74.99 69.73c-5.64 3.76-5.92-9.3-5.92-9.3s11.57 5.54 5.92 9.3z"/><linearGradient id="d" x1="30.588" x2="30.588" y1="50.263" y2="59.272" gradientTransform="matrix(-1 0 0 1 128.35 0)" gradientUnits="userSpaceOnUse"><stop offset="0" stop-color="#1A1A1A"/><stop offset=".277" stop-color="#292929"/><stop offset=".811" stop-color="#515151"/><stop offset="1" stop-color="#616161"/></linearGradient><path fill="url(#d)" d="m101.05 58.18c-4.77 4.82-7.67-7.92-7.67-7.92s12.44 3.1 7.67 7.92z"/><linearGradient id="c" x1="36.438" x2="36.438" y1="72.455" y2="82.817" gradientTransform="matrix(-1 0 0 1 128.35 0)" gradientUnits="userSpaceOnUse"><stop offset="0" stop-color="#1A1A1A"/><stop offset=".277" stop-color="#292929"/><stop offset=".811" stop-color="#515151"/><stop offset="1" stop-color="#616161"/></linearGradient><path fill="url(#c)" d="m93.5 82.33c-6.01 3.15-4.92-9.87-4.92-9.87s10.93 6.71 4.92 9.87z"/><linearGradient id="b" x1="56.445" x2="56.445" y1="89.589" y2="99.572" gradientTransform="matrix(-1 0 0 1 128.35 0)" gradientUnits="userSpaceOnUse"><stop offset="0" stop-color="#1A1A1A"/><stop offset=".277" stop-color="#292929"/><stop offset=".811" stop-color="#515151"/><stop offset="1" stop-color="#616161"/></linearGradient><path fill="url(#b)" d="m74.09 98.89c-5.64 3.76-5.92-9.3-5.92-9.3s11.56 5.54 5.92 9.3z"/><linearGradient id="a" x1="74.558" x2="74.558" y1="77.454" y2="87.437" gradientTransform="matrix(-1 0 0 1 128.35 0)" gradientUnits="userSpaceOnUse"><stop offset="0" stop-color="#1A1A1A"/><stop offset=".277" stop-color="#292929"/><stop offset=".811" stop-color="#515151"/><stop offset="1" stop-color="#616161"/></linearGradient><path fill="url(#a)" d="m55.97 86.76c-5.64 3.76-5.92-9.3-5.92-9.3s11.57 5.54 5.92 9.3z"/><linearGradient id="h" x1="89.41" x2="89.41" y1="89.227" y2="99.21" gradientTransform="matrix(-1 0 0 1 128.35 0)" gradientUnits="userSpaceOnUse"><stop offset="0" stop-color="#1A1A1A"/><stop offset=".277" stop-color="#292929"/><stop offset=".811" stop-color="#515151"/><stop offset="1" stop-color="#616161"/></linearGradient><path fill="url(#h)" d="m41.12 98.53c-5.64 3.76-5.92-9.3-5.92-9.3s11.57 5.54 5.92 9.3z"/><g opacity=".2"><path fill="#424242" d="m113.86 28.97c7.93 14.54 10.16 31.42 6.1 46.77-3.87 14.64-13.01 26.34-26.44 33.85-13.56 7.58-26.51 11.43-38.48 11.43-18.76 0-35.1-9.6-47.41-27.8l106.23-64.25m1.07-4.15-111.51 67.43c12.66 20.13 30.22 31.76 51.62 31.76 12.14 0 25.52-3.74 39.94-11.81 32.69-18.27 37.45-58.45 19.95-87.38z"/></g></svg>